<?xml version="1.0" encoding="utf-8"?>
<!-- Generator: Adobe Illustrator 22.1.0, SVG Export Plug-In . SVG Version: 6.00 Build 0)  -->
<svg version="1.1" id="Layer_1" xmlns="http://www.w3.org/2000/svg" xmlns:xlink="http://www.w3.org/1999/xlink" x="0px" y="0px"
	 viewBox="0 0 3205 2000" style="enable-background:new 0 0 3205 2000;" xml:space="preserve">
<style type="text/css">
	.st0{fill:#FFFFFF;}
	.st1{fill:#E6EBF7;}
	.st2{fill:#3C8F7C;}
	.st3{fill:#96D9C9;}
	.st4{fill:#50BFA5;}
	.st5{fill:#F48C7F;}
	.st6{fill:#F7CC7F;}
	.st7{fill:#07345A;}
	.st8{fill:#2FB985;}
	.st9{fill:#EAFCFC;}
	.st10{fill:#FBAE17;}
	.st11{fill:#183658;}
	.st12{fill:#184655;}
	.st13{opacity:0.3;fill:#DAEEF7;}
	.st14{opacity:0.2;fill:#3CB4C5;}
	.st15{fill:#1A1A1A;}
	.st16{fill:#9E9DA2;}
	.st17{fill:#D8D9DD;}
	.st18{fill:#CF283C;}
	.st19{fill:#F3FCFF;}
	.st20{fill:#EAB054;}
	.st21{opacity:0.5;fill:#FEB546;}
	.st22{fill:#F7A491;}
	.st23{fill:#355389;}
	.st24{fill:#466EB6;}
	.st25{fill:#F8A492;}
	.st26{fill:#F47458;}
	.st27{fill:#FBB03B;}
</style>
<rect x="-668" class="st0" width="3575" height="2000"/>
<polygon class="st1" points="3064.4,1803.8 3064.4,1405.3 2928.4,1405.3 2928.4,1111.3 2797.5,1111.3 2797.5,1242.2 2689.1,1242.2 
	2689.1,1200 2689.1,940.6 2511.8,940.6 2511.8,1216.4 2458.7,1218.1 2458.7,940 2396.8,940 2396.8,821.5 2359.7,821.5 2359.7,741.9 
	2214.6,741.9 2214.6,821.5 2177.5,821.5 2177.5,940 2115.6,940 2115.6,1090.7 2087,1092.5 2078.4,646.2 1887.4,646.2 1887.4,883.6 
	1820.2,885.3 1820.2,514.3 1797.2,514.3 1797.2,436 1595.6,436 1595.6,514.3 1572.6,514.3 1572.6,1014.3 1530.1,1014.3 
	1530.1,858.4 1494.8,858.4 1494.8,782.2 1443.5,782.2 1443.5,559.6 1369.2,559.6 1369.2,782.2 1317.9,782.2 1317.9,858.4 
	1282.5,858.4 1282.5,1122.2 1257.8,1122.2 1238.3,1121.9 1238.3,816.3 714.8,821.3 714.8,1509.5 670.6,1509.5 670.6,1419.3 
	511.4,1419.3 511.4,1592.7 465.4,1592.7 465.4,1529 364.6,1529 364.6,1638.7 364.6,1658.1 263.8,1658.1 263.8,1803.8 "/>
<g>
	<path class="st2" d="M754.4,1795c0,0-66.3-382.7-93.1-422.2c-37.1-54.6-83.1,113-85.4,98.2c-21.2-139.1-16.8-314.6-116.1-341.1
		c-56.4-15.1,3.7,131-3.3,168.7s-100.9-96.8-158.7-167.9c-57.8-71.1-93.2-31.9-59.7,54.4c32.4,83.4,149.8,181.2,123.5,189.6
		s-173.6-107.9-195.8-65c-27.2,52.5,199.8,145.2,177,155.7c-22.8,10.5-130.9-38.7-130.9,3.1s149.4,52.3,145.5,70.4
		c-6.3,29.3-100.2-45.7-107.5-5.1c-7.5,41.6,127.4,44.7,122.7,77.2c-2.7,18.7-36.7-0.9-42.8,24.8c-14,58.6,198.6,140.7,198.6,140.7
		L754.4,1795z"/>
	<path class="st3" d="M860.2,1804.9c-27-35.1-186.4-231.4-282.8-262.8c-106.5-34.6-6.1,102.8-6.1,102.8S382.3,1437.7,313,1456.4
		c-63.5,17.1,0,145.6,0,145.6s-71.6-71.1-158.4-71.1c-84.5,0,61.3,260.6,69.1,274.1H860.2z"/>
	<g>
		<path class="st4" d="M199.9,1665.5c-0.5,3.2-3.9,12.7-1.8,22c1.2,9.2,7.9,18.2,8,17.8c0.6,0-10.4-3-17.8-12.4
			c-7.9-8.7-12.3-23.8-10.6-30.4c1.9-13.8,13.3-20.5,18-16.5C200.5,1649.9,200.6,1658.3,199.9,1665.5z"/>
		<path class="st4" d="M269.3,1690.4c-0.5,3.2-3.9,12.7-1.8,22c1.2,9.2,7.9,18.2,8,17.8c0.6,0-10.4-3-17.8-12.4
			c-7.9-8.7-12.3-23.8-10.6-30.4c1.9-13.8,13.3-20.5,18-16.5C269.9,1674.9,270,1683.3,269.3,1690.4z"/>
		<path class="st4" d="M339.9,1722c-0.5,3.2-3.9,12.7-1.8,22c1.2,9.2,7.9,18.2,8,17.8c0.6,0-10.4-3-17.8-12.4
			c-7.9-8.7-12.3-23.8-10.6-30.4c1.9-13.8,13.3-20.5,18-16.5C340.5,1706.4,340.6,1714.8,339.9,1722z"/>
		<path class="st4" d="M179.2,1730.6c1.4-2.7,4.2-11.5,10.9-17.2c6-6.1,16-9,15.8-8.7c0.4,0.3-9.3-3.6-20.1-0.8
			c-10.7,1.9-22.3,10.6-24.7,16.5c-6.3,11.2-1.6,22.5,4.1,22.2C170.9,1742.4,175.7,1736.3,179.2,1730.6z"/>
		<path class="st4" d="M251.4,1756.2c1.4-2.7,4.2-11.5,10.9-17.2c6-6.1,16-9,15.8-8.7c0.4,0.3-9.3-3.6-20.1-0.8
			c-10.7,1.9-22.3,10.6-24.7,16.5c-6.3,11.2-1.6,22.5,4.1,22.2C243.2,1768,247.9,1761.9,251.4,1756.2z"/>
		<path class="st4" d="M132.5,1670.1c0.3,1.9,0.1,7.9,2.9,12.8c2.3,5,7.7,8.9,7.7,8.6c0.3-0.1-6.4,0.2-12.3-3.8
			c-6-3.5-11.2-11.3-11.4-15.3c-1.4-8.1,3.9-14,7.3-12.5C130.1,1661.2,131.6,1665.9,132.5,1670.1z"/>
		<path class="st4" d="M121.2,1702.7c1.2-1.5,4.1-6.7,9.1-9.4c4.6-3,11.2-3.5,11-3.3c0.2,0.3-5.4-3.5-12.5-3.2
			c-7-0.2-15.4,3.7-17.7,7.1c-5.4,6.2-4,13.9-0.3,14.5C114.5,1709,118.3,1705.8,121.2,1702.7z"/>
		<g>
			<g>
				<path class="st4" d="M281.6,1396.1c77.2,121,134.4,266.1,166.6,408.8h8.3c-32.1-139.8-91.9-286.1-169-406.9
					c-17.9-28.1-37.2-61.4-70.8-72.3c-0.6-0.2-0.9,0.8-0.3,1C247.1,1338.2,264.8,1369.8,281.6,1396.1z"/>
			</g>
			<g>
				<path class="st4" d="M432.5,1804.9c-86.3-117.7-194.9-232.2-319.6-326.8c-1.2-0.9-2.9,1.2-1.7,2.2
					c118.3,91.2,224.9,202.9,313,324.6H432.5z"/>
			</g>
			<path class="st4" d="M274.5,1321.1c-2,2.9-9.6,10.6-11.8,20.6c-3,9.5-0.6,21.5-0.4,21c0.6,0.2-8.8-7.7-11.7-20.4
				c-3.8-12.1-1.1-29,3.6-34.5c8.1-12.6,22.4-13.9,25.1-7.8C282.3,1306.1,278.5,1314.4,274.5,1321.1z"/>
			<path class="st4" d="M256.1,1429c2.9-2.1,10.4-9.8,20.3-12.3c9.4-3.2,21.4-1.1,21-0.8c0.2,0.6-7.9-8.7-20.5-11.4
				c-12.2-3.6-28.9-0.6-34.3,4.3c-12.4,8.4-13.4,22.7-7.2,25.4C241.3,1437.1,249.5,1433.2,256.1,1429z"/>
			<path class="st4" d="M283.9,1476.3c2.9-2.1,10.4-9.8,20.3-12.3c9.4-3.2,21.4-1.1,21-0.8c0.2,0.6-7.9-8.7-20.5-11.4
				c-12.2-3.6-28.9-0.6-34.3,4.3c-12.4,8.4-13.4,22.7-7.2,25.4C269.2,1484.4,277.4,1480.5,283.9,1476.3z"/>
			<path class="st4" d="M184.5,1586.1c2.9-2.1,10.4-9.8,20.3-12.3c9.4-3.2,21.4-1.1,21-0.8c0.2,0.6-7.9-8.7-20.5-11.4
				c-12.2-3.6-28.9-0.6-34.3,4.3c-12.4,8.4-13.4,22.7-7.2,25.4C169.8,1594.1,178,1590.2,184.5,1586.1z"/>
			<path class="st4" d="M133.8,1541.2c2.9-2.1,10.4-9.8,20.3-12.3c9.4-3.2,21.4-1.1,21-0.8c0.2,0.6-7.9-8.7-20.5-11.4
				c-12.2-3.6-28.9-0.6-34.3,4.3c-12.4,8.4-13.4,22.7-7.2,25.4C119,1549.2,127.2,1545.3,133.8,1541.2z"/>
			<path class="st4" d="M313.5,1374.6c-2.4,2.6-11.1,8.9-14.9,18.5c-4.5,8.9-4,21.1-3.7,20.7c0.5,0.3-7.5-9-8.4-22
				c-1.8-12.6,3.4-28.8,9-33.5c10-11.2,24.3-10.2,26-3.7C323.5,1361.1,318.5,1368.6,313.5,1374.6z"/>
			<path class="st4" d="M354.5,1428.3c-3.4,1.8-15.5,5.2-21.6,14.2c-6.9,8-7.7,21.8-7.3,21.5c0.6,0.6-8.6-13.3-8.2-28.1
				c-0.9-14.8,7.9-30.6,15.7-33.6c14.3-8.1,32.7-0.9,34.2,7.1C369,1417.5,361.7,1423.8,354.5,1428.3z"/>
			<path class="st4" d="M397.6,1509.5c-3.7,1.2-16.1,2.5-23.6,10.4c-8.1,6.8-11.3,20.2-10.8,20c0.5,0.7-6.2-14.5-3.4-29.1
				c1.6-14.8,12.9-28.9,21.1-30.4c15.5-5.6,32.3,4.6,32.5,12.8C413.8,1501.4,405.5,1506.3,397.6,1509.5z"/>
			<path class="st4" d="M270,1566.2c-2.7,1.7-12.3,5.1-16.7,12.8c-5.1,6.9-5,18.2-4.7,17.9c0.6,0.4-7.7-10.3-8.3-22.4
				c-1.5-12,4.7-25.4,10.8-28.2c11.2-7.4,26.5-2.6,28.2,3.8C281.2,1556.5,275.6,1562.1,270,1566.2z"/>
			<path class="st4" d="M203.6,1340.1c1.6-1.3,5.7-6.3,11.5-8.2c5.4-2.3,12.6-1.6,12.4-1.4c0.2,0.3-5-4.8-12.6-5.8
				c-7.4-1.6-17.1,0.9-20.1,4c-7,5.5-6.9,14-3.2,15.3C195.2,1345.5,199.9,1342.8,203.6,1340.1z"/>
			<path class="st4" d="M219,1305.5c-0.1,2.1-1.5,8.4,0.6,14.1c1.5,5.7,6.5,11,6.5,10.7c0.4-0.1-6.8-1.1-12.3-6.5
				c-5.7-4.9-9.7-14.2-9.1-18.5c0.1-8.9,6.8-14.1,10.2-11.9C218.2,1295.6,218.9,1300.9,219,1305.5z"/>
			<path class="st4" d="M97.2,1495.5c1.6-1.3,5.7-6.3,11.5-8.2c5.4-2.3,12.6-1.6,12.4-1.4c0.2,0.3-5-4.8-12.6-5.8
				c-7.4-1.6-17.1,0.9-20.1,4c-7,5.5-6.9,14-3.2,15.3C88.8,1500.9,93.5,1498.2,97.2,1495.5z"/>
			<path class="st4" d="M115.9,1460.6c-0.2,2.1-2.1,8.2-0.6,14.1c1,5.8,5.5,11.5,5.6,11.2c0.4,0-6.7-1.6-11.7-7.5
				c-5.3-5.3-8.5-14.9-7.6-19.1c0.8-8.9,8-13.5,11.1-11C115.8,1450.7,116.1,1456,115.9,1460.6z"/>
		</g>
		<path class="st4" d="M128.9,1689.4c22.2,2,44.2,6.1,65.8,11.8c39.4,10.4,77.3,25.6,114.6,41.9c18.3,8,36.8,15.9,54.8,24.6
			c8.4,4.1,16.9,8.2,24.6,13.5c10.4,7.1,26.7,21.3,28.7,23.5l-8.6,0.3c-5.9-4.8-27.3-22.9-57.2-37.3c-70.7-34-144.1-69-222.9-77.6
			C128.4,1690,128.5,1689.3,128.9,1689.4z"/>
	</g>
</g>
<path class="st3" d="M987.3,1797.2c20.9-17.9,33.6-36.9,30.3-55.9c-5.8-33.7-53.7-12.1-55.5-36.4c-3.2-42.4,179.6-32.5,173.6-86.8
	c-5.9-53.1-140.3,33.8-145.9-4.6c-3.5-23.7,199.7-21.7,203.8-75.6c4.1-53.9-147-1.8-176.8-17.6s286.4-111.8,254.8-182.3
	c-25.8-57.5-236.6,77-271.3,63.5c-34.7-13.5,133.7-127.3,185.8-231.5c53.8-107.7,9.8-161.9-75.4-76.3s-225.5,249.2-231.2,199.9
	c-5.8-49.2,90-231.3,12.2-217.7c-136.9,24-148.2,250.5-190.6,427.5c-4.5,18.7-50.3-202-105.8-135.4
	c-28.6,34.2,24.4,286.2,57.4,429.1H987.3z"/>
<ellipse transform="matrix(8.598825e-02 -0.9963 0.9963 8.598825e-02 789.0974 2292.3064)" class="st0" cx="1643.9" cy="716.1" rx="72.5" ry="72.5"/>
<path class="st5" d="M2275.5,627.8c-2.3,18.1,16.5,32.4,33.3,31.3c18.5-1.3,34.2-16.4,36.9-34.6c2.9-19.7-8.9-35.4-27.2-36.9
	c-17.8-1.4-29.2,14.4-24.1,30.4c3.7,11.5,14.2,15.7,19.4,12.6c4.1-2.5,3.9-8.7-1.1-9.8c-2-0.4-4,0.7-5.1,2.2
	c-4.4-1.7-8.5-9.7-5.7-18.2c3.6-10.9,17.4-11.6,26-6.5c10.9,6.5,12.6,20.5,8.6,31.6c-4.2,11.7-15.7,20.9-28.2,21.8
	c-14.2,1-26.6-9.9-27.8-24C2280.3,624.5,2275.9,624.6,2275.5,627.8z"/>
<path class="st5" d="M2592.7,567.4l11.9-26.8l-15.4-25c-1.7-2.8,0.5-6.5,3.8-6.1l29.2,3l19-22.3c2.2-2.5,6.3-1.5,7,1.8l6.1,28.7
	l27.1,11.2c3.1,1.3,3.4,5.5,0.5,7.2l-25.4,14.7l-2.3,29.2c-0.3,3.3-4.2,4.9-6.7,2.7l-21.8-19.6l-28.5,6.9
	C2594,573.7,2591.3,570.4,2592.7,567.4z"/>
<path class="st6" d="M1480.3,377.5l8.9-20.1l-11.5-18.7c-1.3-2.1,0.4-4.8,2.9-4.6l21.9,2.3l14.3-16.7c1.6-1.9,4.7-1.1,5.3,1.3
	l4.6,21.5l20.3,8.4c2.3,1,2.5,4.2,0.4,5.4l-19,11l-1.7,21.9c-0.2,2.5-3.2,3.7-5,2l-16.4-14.7l-21.4,5.2
	C1481.4,382.3,1479.3,379.8,1480.3,377.5z"/>
<polygon class="st4" points="2792.1,799.5 2804.8,776.5 2843.9,792.8 2866.5,761.5 2897.7,768.9 2901.5,753.1 2859.6,743.2 
	2838.2,772.8 2797.5,755.9 2778.6,790.4 "/>
<polygon class="st7" points="1766,304.9 1743.7,291.1 1762,252.9 1732,228.7 1741.1,197.9 1725.5,193.3 1713.4,234.5 1741.8,257.5 
	1722.8,297.2 1756.2,318 "/>
<path class="st4" d="M2058.1,461.5l16.4-26.7l-13.2-5.4c-2.9-1.2-4.3-4.5-3.1-7.4l0,0c1.2-2.9,4.5-4.3,7.4-3.1l15.2,6.2l14.7-24
	l-14.1-5.7c-2.9-1.2-4.3-4.5-3.1-7.4l0,0c1.2-2.9,4.5-4.3,7.4-3.1l16.1,6.5l17.1-27.5c1.5-2.3,4.4-3.3,6.9-2.3l2.5,1
	c3.2,1.3,4.5,5.2,2.7,8.2l-15.9,25.9l23.4,9.5l17.1-27.5c1.5-2.3,4.4-3.3,6.9-2.3l2.7,1.1c3.2,1.3,4.5,5.2,2.7,8.2l-15.9,25.9
	l13.2,5.4c2.9,1.2,4.3,4.5,3.1,7.4l0,0c-1.2,2.9-4.5,4.3-7.4,3.1l-15.2-6.2l-14.5,24.1l14.1,5.7c2.9,1.2,4.3,4.5,3.1,7.4l0,0
	c-1.2,2.9-4.5,4.3-7.4,3.1l-16.1-6.5l-17.4,28.3c-1.4,2.3-4.4,3.3-6.9,2.3l-2.9-1.2c-3.2-1.3-4.5-5.2-2.7-8.2l16.4-26.7l-23.4-9.5
	l-17.4,28.3c-1.4,2.3-4.4,3.3-6.9,2.3l-2.9-1.2C2057.5,468.4,2056.2,464.5,2058.1,461.5z M2117.7,440.1l14.7-24l-23.4-9.5l-14.7,24
	L2117.7,440.1z"/>
<g>
	<path class="st8" d="M1342.7,182.6L1342.7,182.6c-0.1,0-0.1,0-0.2-0.1c-1.9-0.7-3.8-1.3-5.8-1.9c-0.7-0.2-1.3-0.4-2-0.6
		c-0.7-0.2-1.4-0.4-2.1-0.5c-0.7-0.2-1.4-0.3-2.2-0.5c-0.7-0.1-1.4-0.3-2.1-0.4c-0.8-0.1-1.6-0.3-2.3-0.4c-0.7-0.1-1.3-0.2-2-0.3
		c-0.8-0.1-1.7-0.2-2.6-0.3c-0.6-0.1-1.2-0.1-1.9-0.2c-1-0.1-2-0.2-2.9-0.2c-0.5,0-1-0.1-1.6-0.1c-1.5-0.1-3-0.1-4.6-0.1H609.2
		c-1.6,0-3.3,0-4.9,0.1c-3.2,0.2-6.4,0.5-9.5,1c-1.6,0.2-3.1,0.5-4.7,0.8c-40,8.2-70.8,41.8-75,83.3c-0.3,3.2-0.5,6.4-0.5,9.7v1171
		v267.2c0,41.1,26,76,62.4,89.2l0,0c0.2,0.1,0.3,0.1,0.5,0.2c1.8,0.6,3.6,1.2,5.5,1.8c0.7,0.2,1.3,0.4,2,0.6
		c0.7,0.2,1.4,0.4,2.1,0.5c0.7,0.2,1.4,0.3,2.2,0.5c0.7,0.1,1.4,0.3,2.1,0.4c0.8,0.1,1.6,0.3,2.3,0.4c0.7,0.1,1.3,0.2,2,0.3
		c0.8,0.1,1.7,0.2,2.6,0.3c0.6,0.1,1.2,0.1,1.9,0.2c1,0.1,2,0.2,2.9,0.2c0.5,0,1,0.1,1.6,0.1c1.5,0.1,3,0.1,4.6,0.1h701.3
		c3.3,0,6.5-0.2,9.7-0.5c44.5-4.5,79.9-40,84.4-84.7c0.3-3.2,0.5-6.4,0.5-9.7V539V271.9C1405.1,230.8,1379.1,195.9,1342.7,182.6z"/>
	<g>
		<rect x="560.5" y="306.3" class="st9" width="801.5" height="1369.3"/>
		<path class="st0" d="M1362,883.1l-231.3-19l-6.6-135.6l-56.8-2.4v-92.4L1362,760.3v-25.9l-97.8-41.9l-18.5-386h-23.9l18,375.6
			l-172.6-74v-2.6h-6.1l-39.3-16.8l-0.2-282.1h-23.8l0.2,271.8L758.8,475.6V306.3h-47.7v148.8l-150.6-64.6v25.9l150.6,64.6v150.8
			l-150.6-70.3v26.3l150.6,70.3v89.1l-136,172.6l-14.6,0.3v23.8l119.7-2.4V1104l125,69.4l-131.1,57.7l-113.6-81v29.3l107.3,76.5
			l0.1-0.1L642,1675.6h47.8l16.1-260.9l201.5,73.7l-23.1,187.2h24l22-178.8l196.7,71.9l-34.4,106.9h25l31.8-98.7l212.6,77.7v-25.4
			l-205.2-75l58.1-180.4l-74.4-41.3c25.8-31.3,81.6-98.9,137.3-166.9c35.5-43.3,62.9-77,84.2-103.3v-38
			c-26.4,32.8-60.4,74.6-97,119.3l-124.6-79.7l-8.5-175.7L1362,907V883.1z M1078.6,774.4l13.1,269.6L948,919.3V769L1078.6,774.4z
			 M758.8,501.5l284.6,122.1v101.6l-284.6-11.8V501.5z M606,919.3L731.5,760l192.7,8v145L606,919.3z M704.1,1090V941.2l227.7-4.5
			l138.5,120.3l-237.6,104.4L704.1,1090z M1186.1,1385.1l-51.8,160.9l-427-156.1l7.7-124.7l142.5-62.7L1186.1,1385.1z
			 M1249.8,1162.1c-43.8,53.4-90,109.6-130.5,158.6L885,1190.5l242.5-106.6L1249.8,1162.1z"/>
		<g>
			<g>
				<polygon class="st10" points="1139.3,1569.1 671.6,1402 679.8,1249.6 1090,1068.3 927.8,929.2 927.8,753.4 726.5,747.4 
					726.5,587.2 743.5,587.2 743.5,730.8 944.8,736.9 944.8,921.4 1121.6,1072.9 696.3,1261 689.3,1390.2 1145,1553.1 				"/>
			</g>
		</g>
		<path class="st11" d="M690.9,530.4l43.6,86.6l45.8-85.5c13.6-31.4-8.2-67.1-42.3-68.6c-0.5,0-1,0-1.5,0c-0.5,0-1,0-1.5,0
			C700.8,463.5,678.2,498.7,690.9,530.4z M713.2,512.4c0.2-12.5,10.4-22.5,22.9-22.3c12.5,0.2,22.5,10.4,22.3,22.9
			c-0.2,12.5-10.4,22.5-22.9,22.3C723.1,535.1,713.1,524.9,713.2,512.4z"/>
		<path class="st12" d="M1096.9,1482.5l43.6,86.6l45.8-85.5c13.6-31.4-8.2-67.1-42.3-68.6c-0.5,0-1,0-1.5,0s-1,0-1.5,0
			C1106.8,1415.6,1084.2,1450.8,1096.9,1482.5z M1119.3,1464.5c0.2-12.5,10.4-22.5,22.9-22.3c12.5,0.2,22.5,10.4,22.3,22.9
			c-0.2,12.5-10.4,22.5-22.9,22.3C1129.1,1487.3,1119.1,1477,1119.3,1464.5z"/>
	</g>
	<path class="st0" d="M1130.6,263.3H790.5c-0.5,0-0.9-0.4-0.9-0.9V247c0-0.5,0.4-0.9,0.9-0.9h340.1c0.5,0,0.9,0.4,0.9,0.9v15.4
		C1131.4,262.9,1131,263.3,1130.6,263.3z"/>
	<path class="st13" d="M998.6,1741.6c0,21.7-17.6,39.4-39.2,39.4c-21.7,0-39.2-17.6-39.2-39.4c0-21.7,17.6-39.4,39.2-39.4
		C981.1,1702.2,998.6,1719.8,998.6,1741.6z"/>
	<rect x="560.5" y="1618.2" class="st14" width="798.8" height="57.5"/>
	<rect x="560.5" y="306.3" class="st14" width="801.5" height="72.7"/>
</g>
<g>
	<path class="st6" d="M2458.6,927.6h-296.1c-10.2,0-18.5,8.3-18.5,18.6v122.6c0,10.3,8.3,18.6,18.5,18.6h233.1
		c9.4,13.2,26.5,36.9,28,36.9c1.4,0-1.3-22.3-3.2-36.9h38.2c10.2,0,18.5-8.3,18.5-18.6V946.1
		C2477.1,935.9,2468.8,927.6,2458.6,927.6z"/>
	<path class="st0" d="M2269.9,979.3h-85.3c-1.4,0-2.6-1.2-2.6-2.6v-2.8c0-1.4,1.2-2.6,2.6-2.6h85.3c1.4,0,2.6,1.2,2.6,2.6v2.8
		C2272.5,978.1,2271.3,979.3,2269.9,979.3z"/>
	<path class="st0" d="M2240.5,1014.6h-55.9c-1.4,0-2.6-1.2-2.6-2.6v-2.8c0-1.4,1.2-2.6,2.6-2.6h55.9c1.4,0,2.6,1.2,2.6,2.6v2.8
		C2243.1,1013.4,2242,1014.6,2240.5,1014.6z"/>
	<path class="st0" d="M2323.1,1014.6h-61c-1.4,0-2.6-1.2-2.6-2.6v-2.8c0-1.4,1.2-2.6,2.6-2.6h61c1.4,0,2.6,1.2,2.6,2.6v2.8
		C2325.8,1013.4,2324.6,1014.6,2323.1,1014.6z"/>
	<path class="st0" d="M2437.8,1014.6h-90.4c-1.4,0-2.6-1.2-2.6-2.6v-2.8c0-1.4,1.2-2.6,2.6-2.6h90.4c1.4,0,2.6,1.2,2.6,2.6v2.8
		C2440.4,1013.4,2439.3,1014.6,2437.8,1014.6z"/>
	<path class="st0" d="M2437.8,979.3h-143.2c-1.4,0-2.6-1.2-2.6-2.6v-2.8c0-1.4,1.2-2.6,2.6-2.6h143.2c1.4,0,2.6,1.2,2.6,2.6v2.8
		C2440.4,978.1,2439.3,979.3,2437.8,979.3z"/>
	<path class="st0" d="M2300.6,1050.6h-116c-1.4,0-2.6-1.2-2.6-2.6v-2.8c0-1.4,1.2-2.6,2.6-2.6h116c1.4,0,2.6,1.2,2.6,2.6v2.8
		C2303.2,1049.4,2302.1,1050.6,2300.6,1050.6z"/>
	<path class="st0" d="M2437.8,1050.6h-116c-1.4,0-2.6-1.2-2.6-2.6v-2.8c0-1.4,1.2-2.6,2.6-2.6h116c1.4,0,2.6,1.2,2.6,2.6v2.8
		C2440.4,1049.4,2439.3,1050.6,2437.8,1050.6z"/>
</g>
<g>
	<path class="st11" d="M1151.4,1627.2c0,0,378.5,62.8,383,60.1s53.6-214.2,53.6-214.2s-313-56.3-318-56.3c-5.1,0-73.1,54.5-74,58.1
		C1195,1478.6,1151.4,1627.2,1151.4,1627.2z"/>
	<path class="st11" d="M2306,1681c9.1,0.9,467.4-8.9,467.4-8.9l-34.5-105.4c0,0-63.5-96.1-97.1-94.3c-33.6,1.7-233.3-30.6-267.8-6.7
		c-34.5,23.9-65.3,4.8-81.7,62c-16.3,57.2-29.1,63.6-16.4,98C2288.7,1660.1,2306,1681,2306,1681z"/>
	<g>
		
			<ellipse transform="matrix(2.158150e-03 -1 1 2.158150e-03 -325.2115 3003.8489)" class="st15" cx="1342.6" cy="1664.9" rx="156.1" ry="156"/>
		<ellipse class="st16" cx="1342.6" cy="1664.9" rx="108.5" ry="108.6"/>
		<ellipse class="st17" cx="1342.6" cy="1664.9" rx="72.6" ry="72.6"/>
	</g>
	<g>
		
			<ellipse transform="matrix(2.162046e-03 -1 1 2.162046e-03 873.3268 4204.98)" class="st15" cx="2543.7" cy="1664.9" rx="156.1" ry="156"/>
		<ellipse class="st16" cx="2543.7" cy="1664.9" rx="108.5" ry="108.6"/>
		<ellipse class="st17" cx="2543.7" cy="1664.9" rx="72.6" ry="72.6"/>
	</g>
	<path class="st6" d="M2901.9,1516.4c-13.2-87-55.8-105.2-181.9-130.5c-139.2-27.8-315.9-118.6-315.9-118.6
		s-301.3-147.6-375.2-164.6s-255.3-12.1-407.8-10.9c-152.5,1.2-242,43.6-319.5,104.1c-77.5,60.5-211.8,106.5-211.8,106.5l-24.4,4.4
		c-25.1,4.5-43.4,26.3-43.4,51.8v215.8c0,24.4,16.5,45.8,40.1,52l88.2,23.3l0,0c7.2,1.2,13.9-3.9,14.7-11.1
		c9.7-88.3,86-155.4,177-155.3c96.8,0.1,176.1,79.6,176.1,176.4c0,11-1,21.8-3,32.2c-2,10.8,6.3,20.7,17.2,20.7H2344
		c15.8,0,28-13.9,25.9-29.5c-1-7.5-1.5-15.2-1.6-23c-0.3-95.6,77-174.8,172.6-176.8c99.1-2,180,77.7,180,176.3c0,6.5-0.4,13-1,19.3
		c-2,18,11.9,33.7,30,33.7h116.7c21.2,0,38.4-17.2,38.4-38.4v-113C2905.1,1546.2,2904.1,1531.2,2901.9,1516.4z"/>
	<path class="st18" d="M1027.2,1384.1h96.1c8.2,0,13.8,8.4,10.6,16l-10.8,25.8c-10.3,24.6-34.3,40.5-61,40.5h-35
		c-6.9,0-12.4-5.6-12.4-12.4v-57.5C1014.8,1389.6,1020.3,1384.1,1027.2,1384.1z"/>
	<path class="st19" d="M2749,1424c52.9,8.1,113.9,58.2,113.9,58.2c14.6,15.7,2.5,41.1-18.8,39.7l-103.2-6.5
		c-21.4-1.4-39.7-16-45.7-36.7l0,0C2685.1,1444.2,2693.6,1415.5,2749,1424z"/>
	<path class="st20" d="M1022.6,1582.4c-6.6-0.2-11.3,6.5-8.9,12.6c6.9,17.4,21.7,31.1,40.6,36.1l98.8,26.1c8,1.4,15.5-4.3,16.4-12.5
		c1.8-16.7,5.8-32.8,11.7-47.9c2-5.1-1.8-10.6-7.2-10.8L1022.6,1582.4z"/>
	<path class="st20" d="M2721.8,1623.1c-7.5-0.2-13.3,6.4-12.3,13.8c1.1,8.3,1.6,16.7,1.6,25.3c0,7.2-0.4,14.4-1.2,21.4
		c-2.2,19.9,13.2,37.4,33.3,37.4h129.5c23.5,0,42.6-19.1,42.6-42.6v-33.5c0-9.5-7.6-17.3-17.1-17.5L2721.8,1623.1z"/>
	<path class="st21" d="M2404.3,1317.3c-1.7-0.9-173.3-95.1-287.1-147.8c-112.6-52.2-238.4-46.6-243.8-46.4
		c-14.4-0.3-315.3-6.9-407.8,22c-93.2,29-214.5,161.3-219.6,166.9l-1.4,1.6l32.6,153.1l3.5-0.2c94.9-5.4,167.5,19.9,210.1,73
		c32.1,40.2,36.1,82.6,36.1,83l0.3,3.6l342.2,8.8v0l4,0.1l4.2,0.1v0l476.7,9.3l0.1-4.1c2.4-154.9,51.4-316.7,51.9-318.3l1-3.2
		L2404.3,1317.3z M1534.6,1618.2c-1.6-11.5-8.9-47.8-37.2-83.4c-30.5-38.3-92.3-82.6-213.7-76.6l-30.3-142.2
		c14-15.1,128.8-136.4,214.6-163.1c85.8-26.7,364.6-22.4,401.3-21.7v495.6L1534.6,1618.2z M2346.3,1636.2l-468.7-9.1v-495.9
		c22.1-0.6,134.6-1.3,236.2,45.8c105.4,48.8,260.6,133.3,283.7,145.9C2390.6,1346.2,2349.2,1493.4,2346.3,1636.2z"/>
	<path class="st21" d="M1013.7,1595c6.9,17.4,21.7,31.1,40.6,36.1l98.8,26.1c8,1.4,15.5-4.3,16.4-12.5c0.7-6.5,1.7-12.8,3.1-19.1
		L1013.7,1595z"/>
	<path class="st21" d="M2710.9,1671.4c-0.2,4.1-0.5,8.2-0.9,12.3c-2.2,19.9,13.2,37.4,33.3,37.4h129.5c23.5,0,42.6-19.1,42.6-42.6
		v-7H2710.9z"/>
	<path class="st20" d="M2376,1671.4c0-8.8,0.6-17.5,1.8-26.1c1.5-10.2-6.1-19.5-16.5-19.7l-844.2-20.6c-9.2-0.2-15.8,8.6-13.3,17.4
		c4.4,15.5,6.7,31.7,6.7,48.5c0,11.1-1,22-3,32.6c-2,11,6.3,21.3,17.5,21.3h826.1c16.2,0,28.5-14.3,26.3-30.4
		C2376.6,1686.9,2376,1679.2,2376,1671.4z"/>
	<path class="st21" d="M2376,1671.4c0-0.1,0-0.3,0-0.4h-865.5c0,11.1-1,22-3,32.6c-2,11,6.3,21.3,17.5,21.3h826.1
		c16.2,0,28.5-14.3,26.3-30.4C2376.6,1686.9,2376,1679.2,2376,1671.4z"/>
	<path class="st20" d="M1435.6,1378.7h-105.3c-2.5,0-4.5-2-4.5-4.5v-9.4c0-2.5,2-4.5,4.5-4.5h105.3c2.5,0,4.5,2,4.5,4.5v9.4
		C1440.1,1376.7,1438.1,1378.7,1435.6,1378.7z"/>
	<path class="st20" d="M2016.2,1387.9h-105.3c-2.5,0-4.5-2-4.5-4.5v-9.4c0-2.5,2-4.5,4.5-4.5h105.3c2.5,0,4.5,2,4.5,4.5v9.4
		C2020.7,1385.9,2018.7,1387.9,2016.2,1387.9z"/>
	<path class="st11" d="M1345.9,1331.7l466.5,4.4c0,0,28.6-0.8,32.4-27.6c3.9-26.9,3.6-142,3.6-142s-3.4-23.1-25.5-23.4
		c-13.4-0.2-126.2-8.2-235.8,5.1c-89.4,10.9-172.2,51.7-234.9,114.5l-33.1,33.1C1319.1,1295.9,1296.7,1331.3,1345.9,1331.7z"/>
	<path class="st11" d="M1900.3,1181.2v120.7c0,15.7,12,28.6,27.2,29.2l366.6,14.7c8.4,0.3,16.7-3.5,21.5-10.6
		c6.6-9.7,7.3-25.7-25.5-47c-57.1-37.2-202.5-117.7-256.2-125.4c-34.2-5-79-7.1-107-8C1912.3,1154.2,1900.3,1166.2,1900.3,1181.2z"
		/>
</g>
<g>
	<path class="st11" d="M2576.4,1182.1l-2.4,2.2c-1.2,1.1-3.1,1.1-4.2-0.1l-42.7-47.1c-1.1-1.2-0.9-3,0.3-4.1l2.4-2.2
		c1.2-1.1,3.1-1.1,4.2,0.1l42.7,47.1C2577.8,1179.2,2577.7,1181,2576.4,1182.1z"/>
	<path class="st22" d="M2721.2,1143.9c-5.7-4.7-49.8,14.8-49.3,21.5c0.6,6.8-30.8,72.3-30.8,72.3l-54.2-43.4l0,0
		c-0.5-1.6-5.6-18.4-5.9-21.4c-0.3-3.2-9.4-8.7-13.7-7.9s3.6,6.2,4.2,7.2c1.4,2.7-4,3.7-4,3.7s-15.7-8.6-16-13.7
		c-0.3-5.1-3.6-15.7-6.9-13.5c-1.7,1.1-1.7,8.7-1.2,12.3c-1-4.1-2.4-8.6-3.8-9.1c-2.5-0.8-3.8,2.4-3.3,4c0.5,1.6,4.5,18.8,5.8,20.8
		c1.2,1.9,26.5,22.3,30.1,26.8c0,0,70.1,80.4,75.1,82.5c4.4,1.8,20-25.9,34.7-44.3C2696.7,1223.3,2739,1158.4,2721.2,1143.9z"/>
	<path class="st5" d="M2862.6,1735c0,0,9.6,9.4,9.9,12.9c0.2,3.5,0.9,40.5-3.1,44s-15.5,5.9-11.8,9.8c2.8,2.9,24.4,2.3,38.7,1.5
		c4.2-0.2,9.4-33.7,11.1-38.6c2.4-7.1,8.2-23.2,6.1-28.2c-1.1-2.4-6.2-7.4-13.3-12.1c-7.5-4.9-14.8-15.8-14.8-15.8L2862.6,1735z"/>
	<path class="st22" d="M2762.8,1757c0,0,8.6,24.4,8.6,24.5c0.6,3.9,3.2,13.4,3.2,17c0,13.2-59.4-11.2-46.1-17.1
		c1.2-0.5,5-4.8,5.4-9.3c0.6-6.9-5-15.6-5-15.6L2762.8,1757z"/>
	<g>
		<path class="st23" d="M2669.6,1302c0,0-4.3,43.8-4.3,44.5c0,70.8-14,209.2-11.3,222.6c6.5,32.5,76.4,198.2,76.4,198.2l37.8-4.5
			l-49.2-198.4l18.1-79.9l25.6-157.9L2669.6,1302z"/>
		<path class="st24" d="M2796.4,1340.8l7.2,41.5l19.4,170.8l73.9,167c0,0-10.4,24.3-25.7,27.7l-117.5-171.4l-73-219.4l2.6-48.7
			L2796.4,1340.8z"/>
	</g>
	<path class="st2" d="M2654.6,1197.8l52.4,5.4c0,0,2.4-43.1,2.4-63.6c0-24.9-2.1-57.1-5.1-56.4c-8.4,1.9-19.8,6.6-26.5,15.9
		C2654.3,1131.3,2654.6,1197.8,2654.6,1197.8z"/>
	<path class="st4" d="M2680.3,1135.1c-1.1,7.6-21.2,214.3-21.2,214.3c95.4,46.2,148,8.2,148,8.2s-3.1-145.1,0.6-164.9
		c2.5-13.1,5.6-99.9-2.9-102.4c-10.8-3.1-23.3-6.4-36.8-7.8c-11.6-1.2-56.4-1.9-64.5,0.8C2703.5,1083.3,2684.9,1103.1,2680.3,1135.1
		z"/>
	<path class="st4" d="M2899.6,1724.2c0,0-22.2,62.7-30.9,65.7c-2.3,0.8-13.4,2.8-15.5,7.8c-0.6,1.5,0,6.4,0,6.4h46.3
		c0,0,5.9-27.6,8.2-39.8c0,0,12.2-29.7,10.9-32.4C2917.2,1729.3,2899.6,1724.2,2899.6,1724.2z"/>
	<path class="st4" d="M2778,1802.8l-6.8-21.6c0,0-14.3,6.1-21.4,5.1c-7.1-1-21.1-5.1-21.1-5.1c-28.5,9.4-51.9,14-47.6,21.6l0,0H2778
		z"/>
	<g>
		<path class="st22" d="M2647.2,1285.9c-0.2-0.1-1-0.7-1.4-1.1c1.7-20.2,1.4-39.9-4.9-46.5c0.2-0.3,1.5-3.3,3-6.3
			c7.3,5.7,10.8,20.8,9.5,45.4c-0.1,1.7-0.6,3-1,5.1C2650.2,1284.8,2648.2,1286.4,2647.2,1285.9z"/>
	</g>
	<path class="st25" d="M2901.5,1351.6c0.1-0.4,0.1-0.9,0-1.3c-1.4-14.3-13.2-134.5-15.2-139.6c-1.8-4.6-54.9-80.8-54.9-80.8
		l-26.1,35.7l51.1,68.4c1.1,4.3,19.6,85.5,19.6,85.5s3.8,14.8,5.5,23.6c-0.8,2.1-1.5,4.1-2.2,5.8c-1.7,3.5-3.7,6.4-5.5,8.9
		c-2.3,3.1-6.1,9.8-6.5,11.6c-0.5,2.1-1.5,6.4-2.1,9c-0.6,2.6-1.3,5.7-1.4,7.1c-0.1,0.9-1,2.6-1.7,3.8c-1,1.8,0.7,4,2.7,3.3
		c1.9-0.6,3.3-3,4.2-4.5c2.5-4.2,3.9-12,4.5-11.6c0.6,0.4,2.8,13.5,3.2,15s3,16.7,4.5,19.5s3.5,2.3,4,0.6c0.5-1.5-1.6-22.8-1.6-22.8
		s-0.3-2.7,0.9-1.9c1.2,0.9,3.1,20.2,4,23.1c0.8,2.8,2.7,4.3,4.3,2.1c1.9-2.8-1.4-23.3-1.4-23.3s-0.4-2.6,0.7-2.3s2.5,16.8,3.3,18.2
		s3,1.9,4-0.4c1.2-2.8-1.9-21.1-1.9-21.1s0.2-1.5,0.8-1c0.7,0.5,2.9,14.5,4.3,15.8c1.2,1.1,2.2,0,2.2,0c2.6-1.8-1.4-15.1-1.3-21.7
		c0-6.6-3-14.1-2.1-21.9C2901.3,1353.5,2901.4,1352.3,2901.5,1351.6z"/>
	<path class="st2" d="M2872.9,1178l-45.4,30.6c0,0-25.6-38.2-39.3-51.8c-17.2-17,6.3-69.2,17.3-66.2
		C2830.3,1097.2,2872.9,1178,2872.9,1178z"/>
	<path class="st22" d="M2764.7,1037.8l6.8,44.9c0,0-24.8,53.4-39.6,48.8c-12.4-3.9-4.8-51.2-4.8-51.2s6.8-25.4,4.7-38.1
		C2729.8,1029.5,2764.7,1037.8,2764.7,1037.8z"/>
	<path class="st26" d="M2731.8,1042.2c-2-12.7,32.8-4.4,32.8-4.4l0.6,3.7c-1,2.5-2.3,4.6-3.8,6.3c-7.8,8.4-20,13.5-30.5,13.8
		C2732,1054.8,2732.7,1047.5,2731.8,1042.2z"/>
	<g>
		<path class="st22" d="M2770.4,974.3c1-0.4,7.9,51.1-5.2,65.3s-38.7,18.8-47.8,7.6c-10.1-12.3-9.6-67.7,10.8-82.2
			C2748.5,950.4,2770.4,974.3,2770.4,974.3z"/>
		<path class="st12" d="M2735.9,937.5c15.8,3.2,26,12.9,29.7,17c7.2,0.8,16.9,4.8,26.9,21.5c12.4,20.5,3.2,43.3-11.2,54.4
			s-14.2,24-14.2,24l-2.3-6.7c-1.7-5-2.4-10.4-1.8-15.7c0.3-3.2,1-6.6,2.3-9.4c3.5-7.5-7.4-12.4-10.5-18.6
			c-2.4-4.8-2.5-15.7-6.2-23.6l-4.4-6c0,0-10.2-8-20.2-5.7C2714.2,971,2715.6,933.3,2735.9,937.5z"/>
		<path class="st22" d="M2755.6,1013.2c-0.1,6.3,2.7,11.4,6.4,11.5c3.6,0.1,6.6-5,6.7-11.3c0.1-6.3-2.7-11.4-6.4-11.5
			C2758.7,1001.9,2755.7,1006.9,2755.6,1013.2z"/>
	</g>
	<path class="st0" d="M2734.3,1027.7l-19.8-1c0,0,0.1,7.6,8.8,8.3C2733.9,1035.8,2734.3,1027.7,2734.3,1027.7z"/>
</g>
<g>
	<path class="st27" d="M1528.9,771.8l111.6,221.6l117.2-218.7c34.7-80.2-21-171.7-108.3-175.3c-1.3-0.1-2.6-0.1-3.9-0.1
		c-1.3,0-2.6,0-3.9,0C1554.2,600.7,1496.3,690.8,1528.9,771.8z M1586,725.8c0.4-32,26.6-57.5,58.6-57.1c32,0.4,57.5,26.6,57.1,58.6
		c-0.4,32-26.6,57.5-58.6,57.1C1611.2,784,1585.6,757.8,1586,725.8z"/>
</g>
<path class="st11" d="M3085.4,1832H183.8c-6.9,0-12.5-5.6-12.5-12.5v-3.1c0-6.9,5.6-12.5,12.5-12.5h2901.6c6.9,0,12.5,5.6,12.5,12.5
	v3.1C3097.9,1826.4,3092.3,1832,3085.4,1832z"/>
</svg>
