<svg width="87" height="111" viewBox="0 0 87 111" fill="none" xmlns="http://www.w3.org/2000/svg">
<g id="Vector" clip-path="url(#clip0)" filter="url(#filter0_d)">
<g id="Vector_2" filter="url(#filter1_d)">
<path d="M43.5 103L13.2071 66.4019C12.7862 65.8524 12.3696 65.2993 11.9575 64.7429C6.78292 57.7601 3.9875 49.2311 4.00004 40.4643C4.00004 29.7325 8.16163 19.4402 15.5693 11.8517C22.977 4.26319 33.024 0 43.5 0C53.976 0 64.023 4.26319 71.4307 11.8517C78.8384 19.4402 83 29.7325 83 40.4643C83.0125 49.2272 80.2183 57.7523 75.0461 64.7318L75.0425 64.7429C75.0425 64.7429 43.6616 102.805 43.5 103ZM17.6886 60.3102C17.6958 60.3102 18.5288 61.4432 18.7192 61.686L43.5 91.6259L68.3132 61.6455C68.4712 61.4432 69.3114 60.3028 69.315 60.2991C73.5421 54.5941 75.8264 47.6266 75.8181 40.4643C75.8181 31.6837 72.4132 23.2628 66.3524 17.054C60.2915 10.8452 52.0713 7.35714 43.5 7.35714C34.9287 7.35714 26.7084 10.8452 20.6476 17.054C14.5868 23.2628 11.1819 31.6837 11.1819 40.4643C11.1743 47.631 13.4613 54.6025 17.6922 60.3102H17.6886Z" fill="#2FB985"/>
<path d="M18.3255 61.9945L18.3257 61.9944C18.2253 61.8664 17.964 61.5151 17.7338 61.2052L17.6779 61.1299C17.5822 61.0011 17.4936 60.8818 17.4251 60.79C17.3842 60.7351 17.3513 60.6912 17.3286 60.6613L17.3055 60.6312C17.3041 60.6293 17.3039 60.6291 17.3046 60.63C17.3051 60.6307 17.3062 60.6319 17.3075 60.6335C17.3083 60.6345 17.3149 60.6424 17.3242 60.6524C17.3278 60.6562 17.3406 60.6699 17.3588 60.6859C17.3669 60.6931 17.3876 60.7109 17.4168 60.7298C17.4318 60.7392 17.4699 60.7598 17.4932 60.7704C17.5294 60.7842 17.6271 60.8064 17.6886 60.8102V60.3128L17.2905 60.6079C12.9951 54.8133 10.6743 47.7372 10.6819 40.4643L18.3255 61.9945ZM18.3255 61.9945L18.334 62.0048L43.1148 91.9447L43.5 92.41L43.8852 91.9447L68.6983 61.9643L68.7029 61.9588L68.7072 61.9532C68.7912 61.8457 69.046 61.503 69.2738 61.1955C69.3891 61.0398 69.4995 60.8904 69.5812 60.7798L69.6793 60.6472L69.6961 60.6245L69.6965 60.6241L69.7063 60.6108L69.7095 60.6064L69.7126 60.6025L69.7126 60.6023L69.7168 60.5968C74.0083 54.8047 76.3266 47.7324 76.3181 40.4637C76.318 31.5546 72.8632 23.008 66.7102 16.7047C60.5566 10.4009 52.2079 6.85714 43.5 6.85714C34.7921 6.85714 26.4434 10.4009 20.2898 16.7047C14.1367 23.0081 10.6819 31.5548 10.6819 40.464L18.3255 61.9945ZM12.3593 64.4453L12.3592 64.4452C7.24921 57.5496 4.48765 49.1254 4.50004 40.465V40.4643C4.50004 29.8613 8.61181 19.6949 15.9271 12.201C23.242 4.70751 33.1605 0.5 43.5 0.5C53.8395 0.5 63.758 4.70751 71.0729 12.201C78.3882 19.6949 82.5 29.8613 82.5 40.4643V40.465C82.5123 49.1214 79.752 57.5417 74.6444 64.4341L74.6032 64.4897L74.5667 64.534L74.3043 64.8523L73.308 66.0607L69.7509 70.3751L58.9461 83.4802C52.0683 91.8222 45.1762 100.182 43.4993 102.215L13.5983 66.0903C13.181 65.5454 12.768 64.997 12.3593 64.4453Z" stroke="#2FB985"/>
</g>
<path id="Vector_3" d="M45.8235 46.5784C43.3938 46.5784 41.0636 45.7335 39.3455 44.2294C37.6274 42.7254 36.6622 40.6855 36.6622 38.5585C33.9443 39.9218 36.6622 35.5643 36.6622 38.5585L70.8951 16.557L54.0077 42.1674C52.4808 44.7873 49.3965 46.5784 45.8235 46.5784Z" fill="#F6CF00"/>
<line id="Line 1" x1="16.6135" y1="49.2943" x2="71.0504" y2="49.2943" stroke="#F6CF00" stroke-width="5"/>
</g>
<defs>
<filter id="filter0_d" x="0" y="0" width="87" height="111" filterUnits="userSpaceOnUse" color-interpolation-filters="sRGB">
<feFlood flood-opacity="0" result="BackgroundImageFix"/>
<feColorMatrix in="SourceAlpha" type="matrix" values="0 0 0 0 0 0 0 0 0 0 0 0 0 0 0 0 0 0 127 0"/>
<feOffset dy="4"/>
<feGaussianBlur stdDeviation="2"/>
<feColorMatrix type="matrix" values="0 0 0 0 0 0 0 0 0 0 0 0 0 0 0 0 0 0 0.25 0"/>
<feBlend mode="normal" in2="BackgroundImageFix" result="effect1_dropShadow"/>
<feBlend mode="normal" in="SourceGraphic" in2="effect1_dropShadow" result="shape"/>
</filter>
<filter id="filter1_d" x="0" y="0" width="87" height="111" filterUnits="userSpaceOnUse" color-interpolation-filters="sRGB">
<feFlood flood-opacity="0" result="BackgroundImageFix"/>
<feColorMatrix in="SourceAlpha" type="matrix" values="0 0 0 0 0 0 0 0 0 0 0 0 0 0 0 0 0 0 127 0"/>
<feOffset dy="4"/>
<feGaussianBlur stdDeviation="2"/>
<feColorMatrix type="matrix" values="0 0 0 0 0 0 0 0 0 0 0 0 0 0 0 0 0 0 0.25 0"/>
<feBlend mode="normal" in2="BackgroundImageFix" result="effect1_dropShadow"/>
<feBlend mode="normal" in="SourceGraphic" in2="effect1_dropShadow" result="shape"/>
</filter>
<clipPath id="clip0">
<rect width="79" height="103" fill="white" transform="translate(4)"/>
</clipPath>
</defs>
</svg>
